# xmcd CD database file
# Copyright (C) 1993-1998 Ti Kan
# 
# Track frame offsets:
#     150
#     9295
#     28157
#     45645
#     68710
#     75715
#     82802
#     98610
#     108220
#     155737
#     164277
#     173652
#     215035
#     251107
#     256355
#     279715
#     306850
# 
# Disc length: 4427 seconds
# 
# Revision: 1
# Processed by: cddbd v1.4b41PL1 Copyright (c) Steve Scherf et al.
# Submitted via: DiscPlay 4.0.4
# 
DISCID=db114911
DTITLE=Stevie Ray Vaughan And Double Trouble - Unsurpassed Masters - Volume 
DTITLE=II
DYEAR=1900
DGENRE=
TTITLE0=Boot Hill (Instrumental)
TTITLE1=Take 2
TTITLE2=Take 3
TTITLE3=Wha. Wha Wait A Minute
TTITLE4=Take 2
TTITLE5=Take 3
TTITLE6=Take 4
TTITLE7=Nolan Noodles
TTITLE8=Take 2
TTITLE9=Little Wing
TTITLE10=Take 2
TTITLE11=Take 3
TTITLE12=3rd. Stone From The Sun
TTITLE13=Intro-Organizing
TTITLE14=Aint Giving Up On Love
TTITLE15=Take 2
TTITLE16=Come On (Intro)
EXTD=
EXTT0=
EXTT1=
EXTT2=
EXTT3=
EXTT4=
EXTT5=
EXTT6=
EXTT7=
EXTT8=
EXTT9=
EXTT10=
EXTT11=
EXTT12=
EXTT13=
EXTT14=
EXTT15=
EXTT16=
PLAYORDER=
